<svg xmlns="http://www.w3.org/2000/svg" width="32" height="32" viewBox="0 0 32 32"><path d="m 18.2261,4.4168 c -0.7701,0 -1.5415,0.29155 -2.123,0.87305 L 5.2906,16.1043 c -1.163,1.16297 -1.163,3.07921 0,4.24219 l 6.3633,6.36328 c 1.163,1.16296 3.0791,1.16303 4.2421,0 l 10.8145,-10.8125 c 1.163,-1.16297 1.163,-3.08116 0,-4.24414 L 20.3472,5.28985 C 19.7656,4.70833 18.996,4.4168 18.2261,4.4168 Z m -1.4141,2.99408 7.7773,7.77734 -9.4004,9.40039 -7.7773,-7.77734 z"/><path style="line-height:normal;font-variant-ligatures:normal;font-variant-position:normal;font-variant-caps:normal;font-variant-numeric:normal;font-variant-alternates:normal;font-feature-settings:normal;text-indent:0;text-align:start;text-decoration-line:none;text-decoration-style:solid;text-decoration-color:#000;text-transform:none;text-orientation:mixed;shape-padding:0;isolation:auto;mix-blend-mode:normal" d="M28.7834 17.01622a1.0003621 1.0002295 0 0 0-.9318.85558c-.8133 5.14689-4.8446 9.17515-9.9929 9.98372a1.0006636 1.000531 0 1 0 .3106 1.97681c5.9979-.94198 10.7119-5.6518 11.6594-11.64799a1.0003621 1.0002295 0 0 0-1.0453-1.16812zM13.8354 2.1659C7.8383 3.10788 3.1255 7.81787 2.1792 13.81434 1.9206 15.16668 3.9822 15.49295 4.1538 14.12684 4.9661 8.97971 8.9982 4.95102 14.146 4.14246 15.4927 3.86103 15.1064 1.99748 13.8354 2.1659z" color="#000" font-family="sans-serif" font-weight="400" overflow="visible" white-space="normal"/></svg>